HIERARCHY
ROOT hip
{
  OFFSET 0 0 0
  CHANNELS 6 Xposition Yposition Zposition Zrotation Yrotation Xrotation
  JOINT abdomen
  {
    OFFSET 0 20.6881 -0.73152
    CHANNELS 3 Zrotation Xrotation Yrotation
    JOINT chest
    {
      OFFSET 0 11.7043 -0.48768
      CHANNELS 3 Zrotation Xrotation Yrotation
      JOINT neck
      {
        OFFSET 0 22.1894 -2.19456
        CHANNELS 3 Zrotation Xrotation Yrotation
        JOINT head
        {
          OFFSET -0.24384 7.07133 1.2192
          CHANNELS 3 Zrotation Xrotation Yrotation
          JOINT leftEye
          {
            OFFSET 4.14528 8.04674 8.04672
            CHANNELS 3 Zrotation Xrotation Yrotation
            End Site
            {
              OFFSET 1 0 0
            }
          }
          JOINT rightEye
          {
            OFFSET -3.6576 8.04674 8.04672
            CHANNELS 3 Zrotation Xrotation Yrotation
            End Site
            {
              OFFSET 1 0 0
            }
          }
        }
      }
      JOINT rCollar
      {
        OFFSET -2.68224 19.2634 -4.8768
        CHANNELS 3 Zrotation Xrotation Yrotation
        JOINT rShldr
        {
          OFFSET -8.77824 -1.95073 1.46304
          CHANNELS 3 Zrotation Xrotation Yrotation
          JOINT rForeArm
          {
            OFFSET -28.1742 -1.7115 0.48768
            CHANNELS 3 Zrotation Xrotation Yrotation
            JOINT rHand
            {
              OFFSET -22.5879 0.773209 7.07136
              CHANNELS 3 Zrotation Xrotation Yrotation
              JOINT rThumb1
              {
                OFFSET -1.2192 -0.487915 3.41376
                CHANNELS 3 Zrotation Xrotation Yrotation
                JOINT rThumb2
                {
                  OFFSET -3.37035 -0.52449 3.41376
                  CHANNELS 3 Zrotation Xrotation Yrotation
                  End Site
                  {
                    OFFSET -1.78271 -1.18214 1.43049
                  }
                }
              }
              JOINT rIndex1
              {
                OFFSET -7.75947 0.938293 5.60832
                CHANNELS 3 Zrotation Xrotation Yrotation
                JOINT rIndex2
                {
                  OFFSET -2.54057 -0.884171 1.56538
                  CHANNELS 3 Zrotation Xrotation Yrotation
                  End Site
                  {
                    OFFSET -1.62519 -0.234802 1.16502
                  }
                }
              }
              JOINT rMid1
              {
                OFFSET -8.24714 1.18213 3.41376
                CHANNELS 3 Zrotation Xrotation Yrotation
                JOINT rMid2
                {
                  OFFSET -3.10165 -0.590103 1.0647
                  CHANNELS 3 Zrotation Xrotation Yrotation
                  End Site
                  {
                    OFFSET -2.48547 -0.328903 0.83742
                  }
                }
              }
              JOINT rRing1
              {
                OFFSET -8.82822 0.546677 1.51678
                CHANNELS 3 Zrotation Xrotation Yrotation
                JOINT rRing2
                {
                  OFFSET -2.60934 -0.819778 -0.0198488
                  CHANNELS 3 Zrotation Xrotation Yrotation
                  End Site
                  {
                    OFFSET -2.33842 -0.294052 0.168128
                  }
                }
              }
              JOINT rPinky1
              {
                OFFSET -8.27202 -0.0477905 -0.4584
                CHANNELS 3 Zrotation Xrotation Yrotation
                JOINT rPinky2
                {
                  OFFSET -1.82734 -0.647385 -0.700984
                  CHANNELS 3 Zrotation Xrotation Yrotation
                  End Site
                  {
                    OFFSET -1.69225 -0.51767 -0.607171
                  }
                }
              }
            }
          }
        }
      }
      JOINT lCollar
      {
        OFFSET 2.68224 19.2634 -4.8768
        CHANNELS 3 Zrotation Xrotation Yrotation
        JOINT lShldr
        {
          OFFSET 8.77824 -1.95073 1.46304
          CHANNELS 3 Zrotation Xrotation Yrotation
          JOINT lForeArm
          {
            OFFSET 28.1742 -1.7115 0.48768
            CHANNELS 3 Zrotation Xrotation Yrotation
            JOINT lHand
            {
              OFFSET 22.5879 0.773209 7.07136
              CHANNELS 3 Zrotation Xrotation Yrotation
              JOINT lThumb1
              {
                OFFSET 1.2192 -0.487915 3.41376
                CHANNELS 3 Zrotation Xrotation Yrotation
                JOINT lThumb2
                {
                  OFFSET 3.37035 -0.52449 3.41376
                  CHANNELS 3 Zrotation Xrotation Yrotation
                  End Site
                  {
                    OFFSET 1.78271 -1.18214 1.43049
                  }
                }
              }
              JOINT lIndex1
              {
                OFFSET 7.75947 0.938293 5.60832
                CHANNELS 3 Zrotation Xrotation Yrotation
                JOINT lIndex2
                {
                  OFFSET 2.54057 -0.884171 1.56538
                  CHANNELS 3 Zrotation Xrotation Yrotation
                  End Site
                  {
                    OFFSET 1.62519 -0.234802 1.16502
                  }
                }
              }
              JOINT lMid1
              {
                OFFSET 8.24714 1.18213 3.41376
                CHANNELS 3 Zrotation Xrotation Yrotation
                JOINT lMid2
                {
                  OFFSET 3.10165 -0.590103 1.0647
                  CHANNELS 3 Zrotation Xrotation Yrotation
                  End Site
                  {
                    OFFSET 2.48547 -0.328903 0.83742
                  }
                }
              }
              JOINT lRing1
              {
                OFFSET 8.82822 0.546677 1.51678
                CHANNELS 3 Zrotation Xrotation Yrotation
                JOINT lRing2
                {
                  OFFSET 2.60934 -0.819778 -0.0198488
                  CHANNELS 3 Zrotation Xrotation Yrotation
                  End Site
                  {
                    OFFSET 2.33842 -0.294052 0.168128
                  }
                }
              }
              JOINT lPinky1
              {
                OFFSET 8.27202 -0.0477905 -0.4584
                CHANNELS 3 Zrotation Xrotation Yrotation
                JOINT lPinky2
                {
                  OFFSET 1.82734 -0.647385 -0.700984
                  CHANNELS 3 Zrotation Xrotation Yrotation
                  End Site
                  {
                    OFFSET 1.69225 -0.51767 -0.607171
                  }
                }
              }
            }
          }
        }
      }
    }
  }
  JOINT rButtock
  {
    OFFSET -8.77824 4.35084 1.2192
    CHANNELS 3 Zrotation Xrotation Yrotation
    JOINT rThigh
    {
      OFFSET 0 -1.70687 -2.19456
      CHANNELS 3 Zrotation Xrotation Yrotation
      JOINT rShin
      {
        OFFSET 0 -36.8199 0.73152
        CHANNELS 3 Zrotation Xrotation Yrotation
        JOINT rFoot
        {
          OFFSET 0.73152 -45.1104 -5.12064
          CHANNELS 3 Zrotation Xrotation Yrotation
          End Site
          {
            OFFSET -1.1221 -3.69964 12.103
          }
        }
      }
    }
  }
  JOINT lButtock
  {
    OFFSET 8.77824 4.35084 1.2192
    CHANNELS 3 Zrotation Xrotation Yrotation
    JOINT lThigh
    {
      OFFSET 0 -1.70687 -2.19456
      CHANNELS 3 Zrotation Xrotation Yrotation
      JOINT lShin
      {
        OFFSET 0 -36.8199 0.73152
        CHANNELS 3 Zrotation Xrotation Yrotation
        JOINT lFoot
        {
          OFFSET -0.73152 -45.1104 -5.12064
          CHANNELS 3 Zrotation Xrotation Yrotation
          End Site
          {
            OFFSET 1.1221 -3.69964 12.103
          }
        }
      }
    }
  }
}
MOTION
Frames:	7
Frame Time:	0.00833333
129.6976 81.9417 -6.7999105 -0.29003927 -21.746012 7.0300846 4.6312566 -0.4415358 -9.852235 -1.6303872 0.03963472 -2.7849848 -1.7054224 10.579586 -6.5234385 -3.4927123 -10.726103 -13.017498 -0.0 0.0 -0.0 -0.0 0.0 -0.0 -0.0 -0.0 -0.0 68.354904 15.313879 1.7866492 -28.276602 -32.68289 71.57329 -0.43700615 -18.459385 -2.6888456 -0.0 0.0 -0.0 -0.0 0.0 -0.0 -0.0 0.0 -0.0 7.7309012 5.4749126 0.41732216 -0.0 0.0 -0.0 2.9055667 0.9650755 0.103008196 -0.0 0.0 -0.0 10.278597 0.731881 0.026273511 -0.0 0.0 -0.0 2.2216635 -0.73345095 -0.208321 -0.0 -0.0 -0.0 -73.6464 27.586504 -12.548303 27.838997 -29.736706 -66.874504 16.132515 -70.09921 22.842909 0.0 0.0 -0.0 0.0 0.0 -0.0 0.0 0.0 -0.0 -7.7309012 5.4749126 -0.41732216 0.0 0.0 -0.0 -2.9055667 0.9650755 -0.103008196 0.0 0.0 -0.0 -10.278597 0.731881 -0.026273511 0.0 0.0 -0.0 -2.2216635 -0.73345095 0.208321 -0.0 0.0 -0.0 4.917437 -27.456203 3.0880744 -0.1299191 32.7154 0.67559475 -4.13631 -13.959514 -12.714088 0.0 0.0 0.0 26.166403 -39.64119 23.591711 0.836691 55.473885 -1.2121336 1.2931426 1.9506983 10.2853
129.5015 82.2116 -8.761511 -1.8298086 -18.260025 8.720027 6.0844054 -1.1367166 -9.407816 -1.3934344 0.26705703 -2.6371486 -1.8637974 10.920613 -7.4495454 -3.1683478 -10.71509 -14.765102 -0.0 0.0 -0.0 -0.0 0.0 -0.0 -0.0 0.0 -0.0 65.623795 17.195095 2.2477572 -28.189112 -31.902893 70.30619 -0.43341616 -18.386223 -2.6775577 -0.0 0.0 0.0 -0.0 0.0 0.0 -0.0 0.0 0.0 7.7309012 5.4749126 0.41732216 -0.0 0.0 0.0 2.9055667 0.9650755 0.103008196 -0.0 0.0 0.0 10.278597 0.731881 0.026273511 -0.0 0.0 0.0 2.2216635 -0.73345095 -0.208321 -0.0 0.0 -0.0 -72.5721 29.191504 -9.618607 28.200005 -31.951296 -70.355194 20.704014 -73.15439 27.658834 -0.0 -0.0 -0.0 -0.0 -0.0 -0.0 -0.0 -0.0 -0.0 -7.7309012 5.4749126 -0.41732216 -0.0 -0.0 -0.0 -2.9055667 0.9650755 -0.103008196 -0.0 -0.0 -0.0 -10.278597 0.731881 -0.026273511 -0.0 -0.0 -0.0 -2.2216635 -0.73345095 0.208321 -0.0 0.0 -0.0 6.3618736 -27.80959 2.4137664 -0.09330002 30.554781 0.44775105 -4.222785 -12.577502 -13.830411 0.0 0.0 0.0 23.580996 -39.245594 27.107796 1.7331486 67.40139 -2.106408 1.5713505 -0.676489 7.959289
129.33871 82.7771 -10.19241 -2.3800154 -15.345984 9.770035 6.225678 -2.137723 -10.622998 -1.4407797 -0.08812329 -3.007468 -2.429203 10.999498 -7.6403627 -2.4385703 -9.753584 -14.991783 -0.0 0.0 -0.0 -0.0 0.0 -0.0 0.0 0.0 -0.0 68.471794 22.074703 1.1299648 -28.217001 -32.10771 70.61739 -0.29134956 -15.18357 -2.1856937 -0.0 0.0 0.0 -0.0 0.0 0.0 -0.0 0.0 0.0 7.7309012 5.4749126 0.41732216 -0.0 0.0 0.0 2.9055667 0.9650755 0.103008196 -0.0 0.0 0.0 10.278597 0.731881 0.026273511 -0.0 0.0 0.0 2.2216635 -0.73345095 -0.208321 0.0 0.0 -0.0 -72.4 30.862198 -9.145611 28.277992 -32.781597 -71.803894 20.404037 -72.98844 27.344397 -0.0 -0.0 -0.0 -0.0 -0.0 -0.0 -0.0 -0.0 -0.0 -7.7309012 5.4749126 -0.41732216 -0.0 -0.0 -0.0 -2.9055667 0.9650755 -0.103008196 -0.0 -0.0 -0.0 -10.278597 0.731881 -0.026273511 -0.0 -0.0 -0.0 -2.2216635 -0.73345095 0.208321 -0.0 0.0 -0.0 6.064318 -27.803894 0.10359397 -0.075000875 28.086922 0.29984233 -4.210709 -11.301488 -14.326311 0.0 0.0 0.0 16.377195 -31.091497 25.838402 0.9399964 57.468094 -1.3091857 2.0534148 -4.8513203 8.077509
129.2578 83.1491 -11.83801 -2.44002 -12.591981 10.510118 4.9700465 -2.532335 -12.173413 -1.2331017 -0.764776 -3.4840112 -2.5429635 10.757094 -7.568535 -1.738927 -9.2645235 -14.761888 -0.0 0.0 -0.0 -0.0 0.0 -0.0 -0.0 0.0 -0.0 75.428185 27.964603 -1.4443456 -28.254597 -32.475414 71.2439 -0.14970039 -10.962655 -1.559931 -0.0 -0.0 -0.0 -0.0 -0.0 -0.0 -0.0 -0.0 -0.0 7.7309012 5.4749126 0.41732216 -0.0 -0.0 -0.0 2.9055667 0.9650755 0.103008196 -0.0 -0.0 -0.0 10.278597 0.731881 0.026273511 -0.0 -0.0 -0.0 2.2216635 -0.73345095 -0.208321 -0.0 0.0 -0.0 -72.521194 31.020094 -13.630201 28.071693 -31.013199 -68.85489 18.444256 -71.78857 25.288776 0.0 0.0 -0.0 0.0 0.0 -0.0 0.0 0.0 -0.0 -7.7309012 5.4749126 -0.41732216 0.0 0.0 -0.0 -2.9055667 0.9650755 -0.103008196 0.0 0.0 -0.0 -10.278597 0.731881 -0.026273511 0.0 0.0 -0.0 -2.2216635 -0.73345095 0.208321 -0.0 0.0 -0.0 3.4047997 -30.857304 -5.4808583 -0.15465365 30.436892 0.38389742 -3.4885554 -9.746378 -12.116993 0.0 0.0 0.0 8.415102 -22.620901 17.472897 0.3129467 38.775005 -0.7495086 4.798893 -11.714699 14.369701
128.7781 82.9524 -14.370411 -1.8801463 -10.943974 11.18004 1.8907303 -2.033716 -12.749792 -0.5496116 -1.3895012 -3.642882 -2.9574406 10.336091 -7.282016 -0.81169397 -9.410519 -14.062316 -0.0 0.0 -0.0 -0.0 0.0 -0.0 -0.0 -0.0 -0.0 81.36549 34.04119 -4.700615 -28.1417 -31.582796 69.8598 -0.028792745 -4.842414 -0.6809419 -0.0 -0.0 -0.0 -0.0 -0.0 -0.0 -0.0 -0.0 -0.0 7.7309012 5.4749126 0.41732216 -0.0 -0.0 -0.0 2.9055667 0.9650755 0.103008196 -0.0 -0.0 -0.0 10.278597 0.731881 0.026273511 -0.0 -0.0 -0.0 2.2216635 -0.73345095 -0.208321 -0.0 -0.0 -0.0 -71.43149 29.1485 -21.653606 27.228298 -27.106995 -62.613194 17.252945 -70.95916 24.03193 -0.0 0.0 -0.0 -0.0 0.0 -0.0 -0.0 0.0 -0.0 -7.7309012 5.4749126 -0.41732216 -0.0 0.0 -0.0 -2.9055667 0.9650755 -0.103008196 -0.0 0.0 -0.0 -10.278597 0.731881 -0.026273511 -0.0 0.0 -0.0 -2.2216635 -0.73345095 0.208321 -0.0 0.0 -0.0 -2.9341164 -39.196503 -11.63578 -0.35546398 40.584297 0.6437459 -1.3635887 -5.6416836 -4.6763616 0.0 0.0 0.0 5.133664 -20.075201 11.418888 0.1492902 30.243288 -0.68380433 6.228203 -16.224506 15.796804
127.4779 82.2947 -16.66461 -1.06319 -11.325716 11.200218 -1.0120788 -1.0020131 -12.267691 -0.6966904 -1.940117 -3.5076098 -3.3595746 9.9447155 -6.6858325 -0.34857374 -9.563177 -12.79981 -0.0 0.0 -0.0 -0.0 0.0 -0.0 -0.0 -0.0 -0.0 82.67369 39.785004 -8.094354 -27.627995 -28.682306 65.1304 -0.03544024 5.363001 0.75668967 -0.0 0.0 -0.0 -0.0 0.0 -0.0 -0.0 0.0 -0.0 7.7309012 5.4749126 0.41732216 -0.0 0.0 -0.0 2.9055667 0.9650755 0.103008196 -0.0 0.0 -0.0 10.278597 0.731881 0.026273511 -0.0 0.0 -0.0 2.2216635 -0.73345095 -0.208321 -0.0 -0.0 -0.0 -70.6488 23.063591 -30.228203 25.470695 -22.15631 -54.515594 14.301478 -68.48514 20.885778 -0.0 0.0 0.0 -0.0 0.0 0.0 -0.0 0.0 0.0 -7.7309012 5.4749126 -0.41732216 -0.0 0.0 0.0 -2.9055667 0.9650755 -0.103008196 -0.0 0.0 0.0 -10.278597 0.731881 -0.026273511 -0.0 0.0 0.0 -2.2216635 -0.73345095 0.208321 -0.0 0.0 -0.0 -8.807853 -47.006493 -10.358414 -0.7485884 54.038986 1.1630944 -1.2438574 -3.6778457 -4.4397187 0.0 0.0 0.0 5.368657 -22.039999 11.733397 0.13935101 31.28691 -0.75701416 5.7098413 -17.646896 14.0007
125.310196 81.1714 -18.25541 0.5100569 -10.464009 9.890045 -1.9218111 0.12387345 -11.858977 -1.2533631 -2.0421033 -3.4211364 -3.3944724 9.292142 -5.6012907 -1.2267671 -9.515031 -10.725586 -0.0 0.0 -0.0 -0.0 0.0 -0.0 0.0 0.0 -0.0 77.886894 43.605995 -8.703381 -26.134096 -23.786709 57.029194 -0.36805427 17.320185 2.5090315 -0.0 0.0 0.0 -0.0 0.0 0.0 -0.0 0.0 0.0 7.7309012 5.4749126 0.41732216 -0.0 0.0 0.0 2.9055667 0.9650755 0.103008196 -0.0 0.0 0.0 10.278597 0.731881 0.026273511 -0.0 0.0 0.0 2.2216635 -0.73345095 -0.208321 0.0 0.0 -0.0 -71.609695 13.376107 -37.040092 22.819294 -17.063011 -46.0056 10.249877 -63.648125 16.464836 -0.0 0.0 -0.0 -0.0 0.0 -0.0 -0.0 0.0 -0.0 -7.7309012 5.4749126 -0.41732216 -0.0 0.0 -0.0 -2.9055667 0.9650755 -0.103008196 -0.0 0.0 -0.0 -10.278597 0.731881 -0.026273511 -0.0 0.0 -0.0 -2.2216635 -0.73345095 0.208321 -0.0 0.0 -0.0 -10.358693 -47.878403 -1.2413392 -1.3477687 63.946693 1.8666129 -1.9686295 -0.888351 -11.994506 0.0 0.0 0.0 7.1534724 -24.211903 10.869299 0.19444755 35.482494 -0.8674454 5.7912145 -19.008398 13.760283
